/* XPM */
static char *result[] = {
/* columns rows colors chars-per-pixel */
"32 32 9 1 ",
"  c #8868D0",
". c #7058B8",
"X c #B88830",
"o c #D0A840",
"O c #E8C058",
"+ c #F8E860",
"@ c #684018",
"# c black",
"$ c #986028",
/* pixels */
"    ..      ..    ..      ..    ",
"    ..      ..    ..      ..    ",
"  ..XXooOO++++++++++OOooXX....  ",
"  ..XXooOO++++++++++OOooXX....  ",
"..XXOOOOXX@@@@@@@@@@XXOOOOXX....",
"..XXOOOOXX@@@@@@@@@@XXOOOOXX....",
"XXOOXX@@##############@@XXOOXX  ",
"XXOOXX@@##############@@XXOOXX  ",
"ooOO@@##$$XXooooooXX$$##@@OOoo  ",
"ooOO@@##$$XXooooooXX$$##@@OOoo  ",
"OO@@##$$XXXXXXXXXXXXXX$$##@@OO  ",
"OO@@##$$XXXXXXXXXXXXXX$$##@@OO  ",
"++@@##XXXXXXXXXXXXXXXXXX##@@++..",
"++@@##XXXXXXXXXXXXXXXXXX##@@++..",
"++@@##ooXXXXXXXXXXXXXXoo##@@++  ",
"++@@##ooXXXXXXXXXXXXXXoo##@@++  ",
"++@@##ooXXXXXXXXXXXXXXoo##@@++  ",
"++@@##ooXXXXXXXXXXXXXXoo##@@++  ",
"++@@##ooXXXXXXXXXXXXXXoo##@@++..",
"++@@##ooXXXXXXXXXXXXXXoo##@@++..",
"++@@##XXXXXXXXXXXXXXXXXX##@@++  ",
"++@@##XXXXXXXXXXXXXXXXXX##@@++  ",
"OO@@##$$XXXXXXXXXXXXXX$$##@@OO  ",
"OO@@##$$XXXXXXXXXXXXXX$$##@@OO  ",
"ooOO@@@@$$XXooooooXX$$@@@@OOoo  ",
"ooOO@@@@$$XXooooooXX$$@@@@OOoo  ",
"XXOOXX@@@@@@@@@@@@@@@@@@XXOOXX..",
"XXOOXX@@@@@@@@@@@@@@@@@@XXOOXX..",
"  XXOOOOXX@@@@@@@@@@XXOOOOXX..  ",
"  XXOOOOXX@@@@@@@@@@XXOOOOXX..  ",
"    XXooOO++++++++++OOooXX..    ",
"    XXooOO++++++++++OOooXX..    "
};
