/* XPM */
static char *result[] = {
/* columns rows colors chars-per-pixel */
"32 32 9 1 ",
"  c #8868D0",
". c #7058B8",
"X c #D0A840",
"o c #E8C058",
"O c #F8E860",
"+ c #F8F8D0",
"@ c #B88830",
"# c #986028",
"$ c #684018",
/* pixels */
"    ..XXooOO++++++OOooXX  ..    ",
"    ..XXooOO++++++OOooXX  ..    ",
"  ..@@OOOOooooooooooOOOO@@....  ",
"  ..@@OOOOooooooooooOOOO@@....  ",
"..@@OOOOooooooooooooooOOOO@@....",
"..@@OOOOooooooooooooooOOOO@@....",
"@@@@++oooooooooooooooooo++@@@@  ",
"@@@@++oooooooooooooooooo++@@@@  ",
"XXXX++oooooooooooooooooo++XXXX  ",
"XXXX++oooooooooooooooooo++XXXX  ",
"ooXXOOooooooooooooooooooOOXXoo  ",
"ooXXOOooooooooooooooooooOOXXoo  ",
"ooXXOOooooooooooooooooooOOXXoo..",
"ooXXOOooooooooooooooooooOOXXoo..",
"ooXXOOooooooooooooooooooOOXXoo  ",
"ooXXOOooooooooooooooooooOOXXoo  ",
"oo@@OOOOooooooooooooooOOOO@@oo  ",
"oo@@OOOOooooooooooooooOOOO@@oo  ",
"oo##ooOOOOooooooooooOOOOoo##oo..",
"oo##ooOOOOooooooooooOOOOoo##oo..",
"oo$$XXooOOOO++++++OOOOooXX$$oo  ",
"oo$$XXooOOOO++++++OOOOooXX$$oo  ",
"oo$$##@@XXooooooooooXX@@##$$oo  ",
"oo$$##@@XXooooooooooXX@@##$$oo  ",
"XXoo$$##@@@@XXXXXX@@@@##$$ooXX  ",
"XXoo$$##@@@@XXXXXX@@@@##$$ooXX  ",
"@@oo@@$$$$##########$$$$@@oo@@..",
"@@oo@@$$$$##########$$$$@@oo@@..",
"  @@oooo@@$$$$$$$$$$@@oooo@@..  ",
"  @@oooo@@$$$$$$$$$$@@oooo@@..  ",
"    @@XXooooooooooooooXX@@..    ",
"    @@XXooooooooooooooXX@@..    "
};
