/* XPM */
static char *result[] = {
/* columns rows colors chars-per-pixel */
"32 32 7 1 ",
"  c #D0B8A0",
". c #E8D8C8",
"X c #584838",
"o c #786050",
"O c #382818",
"+ c #988068",
"@ c #B8A088",
/* pixels */
"        ..XX..        ..ooXXXXOO",
"        ..XX..        ..ooXXXXOO",
"        ..XX..        ..ooXXXXXX",
"        ..XX..        ..ooXXXXXX",
"        ..XX..        ..XXooXXXX",
"        ..XX..        ..XXooXXXX",
"        ..XX..        ....XXoooo",
"        ..XX..        ....XXoooo",
"        ..XX..          ........",
"        ..XX..          ........",
"        ..XX..                  ",
"        ..XX..                  ",
"        ..XX..                  ",
"        ..XX..                  ",
"        ..XX....                ",
"        ..XX....                ",
"        ..XX++....              ",
"        ..XX++....              ",
"        ..++XX++................",
"        ..++XX++................",
"        ..@@++XXXXXXXXXXXXXXXXXX",
"        ..@@++XXXXXXXXXXXXXXXXXX",
"        ........................",
"        ........................",
"                                ",
"                                ",
"                                ",
"                                ",
"                                ",
"                                ",
"                                ",
"                                "
};
