/* XPM */
static char *result[] = {
/* columns rows colors chars-per-pixel */
"32 32 7 1 ",
"  c #382818",
". c #584838",
"X c #786050",
"o c #E8D8C8",
"O c #D0B8A0",
"+ c #988068",
"@ c #B8A088",
/* pixels */
"  ....XXooOOOOOOOOoo..ooOOOOOOOO",
"  ....XXooOOOOOOOOoo..ooOOOOOOOO",
"......XXooOOOOOOOOoo..ooOOOOOOOO",
"......XXooOOOOOOOOoo..ooOOOOOOOO",
"....XX..ooOOOOOOOOoo..ooOOOOOOOO",
"....XX..ooOOOOOOOOoo..ooOOOOOOOO",
"XXXX..ooooOOOOOOOOoo..ooOOOOOOOO",
"XXXX..ooooOOOOOOOOoo..ooOOOOOOOO",
"ooooooooOOOOOOOOOOoo..ooOOOOOOOO",
"ooooooooOOOOOOOOOOoo..ooOOOOOOOO",
"OOOOOOOOOOOOOOOOOOoo..ooOOOOOOOO",
"OOOOOOOOOOOOOOOOOOoo..ooOOOOOOOO",
"OOOOOOOOOOOOOOOOOOoo..ooOOOOOOOO",
"OOOOOOOOOOOOOOOOOOoo..ooOOOOOOOO",
"OOOOOOOOOOOOOOOOoooo..ooOOOOOOOO",
"OOOOOOOOOOOOOOOOoooo..ooOOOOOOOO",
"OOOOOOOOOOOOOOoooo++..ooOOOOOOOO",
"OOOOOOOOOOOOOOoooo++..ooOOOOOOOO",
"oooooooooooooooo++..++ooOOOOOOOO",
"oooooooooooooooo++..++ooOOOOOOOO",
"..................++@@ooOOOOOOOO",
"..................++@@ooOOOOOOOO",
"ooooooooooooooooooooooooOOOOOOOO",
"ooooooooooooooooooooooooOOOOOOOO",
"OOOOOOOOOOOOOOOOOOOOOOOOOOOOOOOO",
"OOOOOOOOOOOOOOOOOOOOOOOOOOOOOOOO",
"OOOOOOOOOOOOOOOOOOOOOOOOOOOOOOOO",
"OOOOOOOOOOOOOOOOOOOOOOOOOOOOOOOO",
"OOOOOOOOOOOOOOOOOOOOOOOOOOOOOOOO",
"OOOOOOOOOOOOOOOOOOOOOOOOOOOOOOOO",
"OOOOOOOOOOOOOOOOOOOOOOOOOOOOOOOO",
"OOOOOOOOOOOOOOOOOOOOOOOOOOOOOOOO"
};
