/* XPM */
static char *result[] = {
/* columns rows colors chars-per-pixel */
"32 32 7 1 ",
"  c #D0B8A0",
". c #E8D8C8",
"X c #584838",
"o c #988068",
"O c #B8A088",
"+ c #786050",
"@ c #382818",
/* pixels */
"                                ",
"                                ",
"                                ",
"                                ",
"                                ",
"                                ",
"                                ",
"                                ",
"........................        ",
"........................        ",
"XXXXXXXXXXXXXXXXXXooOO..        ",
"XXXXXXXXXXXXXXXXXXooOO..        ",
"................ooXXoo..        ",
"................ooXXoo..        ",
"              ....ooXX..        ",
"              ....ooXX..        ",
"                ....XX..        ",
"                ....XX..        ",
"                  ..XX..        ",
"                  ..XX..        ",
"                  ..XX..        ",
"                  ..XX..        ",
"........          ..XX..        ",
"........          ..XX..        ",
"++++XX....        ..XX..        ",
"++++XX....        ..XX..        ",
"XXXX++XX..        ..XX..        ",
"XXXX++XX..        ..XX..        ",
"XXXXXX++..        ..XX..        ",
"XXXXXX++..        ..XX..        ",
"@@XXXX++..        ..XX..        ",
"@@XXXX++..        ..XX..        "
};
