/* XPM */
static char *result[] = {
/* columns rows colors chars-per-pixel */
"32 32 7 1 ",
"  c #D0B8A0",
". c #E8D8C8",
"X c #B8A088",
"o c #988068",
"O c #584838",
"+ c #786050",
"@ c #382818",
/* pixels */
"                                ",
"                                ",
"                                ",
"                                ",
"                                ",
"                                ",
"                                ",
"                                ",
"        ........................",
"        ........................",
"        ..XXooOOOOOOOOOOOOOOOOOO",
"        ..XXooOOOOOOOOOOOOOOOOOO",
"        ..ooOOoo................",
"        ..ooOOoo................",
"        ..OOoo....              ",
"        ..OOoo....              ",
"        ..OO....                ",
"        ..OO....                ",
"        ..OO..                  ",
"        ..OO..                  ",
"        ..OO..                  ",
"        ..OO..                  ",
"        ..OO..          ........",
"        ..OO..          ........",
"        ..OO..        ....OO++++",
"        ..OO..        ....OO++++",
"        ..OO..        ..OO++OOOO",
"        ..OO..        ..OO++OOOO",
"        ..OO..        ..++OOOOOO",
"        ..OO..        ..++OOOOOO",
"        ..OO..        ..++OOOO@@",
"        ..OO..        ..++OOOO@@"
};
