/* XPM */
static char *result[] = {
/* columns rows colors chars-per-pixel */
"32 32 16 1 ",
"  c gray3",
". c #380000",
"X c #700000",
"o c #483800",
"O c #004808",
"+ c #785800",
"@ c #B80800",
"# c #F01008",
"$ c #F86800",
"% c #008818",
"& c #08F060",
"* c #B09018",
"= c #F8A000",
"- c #F8F800",
"; c #F8F8F8",
": c None",
/* pixels */
"::::::::::::::::::::::::::::::::",
"::::::::::::::OOO:::::::::::::::",
":::::::::::::OO%;O::::::::::::::",
":::::::::::::@@@@@::::::::::::::",
":::::::::::X@#$$XX$#::::::::::::",
":::::::::.X@#$=.-.=$#@::::::::::",
"::::::::.X@@#$.;-.;=$#@:::::::::",
":::::::..X@@#.$;$.-=$#@:::::::::",
":::::@#.XX@@@.-#@.$$#@@X#@::::::",
"::::@#$.XXX@.$=#@.##@@@X$#@:::::",
"::::@$=.X.XX.=#$#@.@X.@.=$@:::::",
"::::X=@..&%..#$=$#..%&X.@=X:::::",
"::::X@@ .%&&.#$--#.&&%X.@@X:::::",
":::::.X .%O%%.###.%%O%. X.::::::",
"::::o+...%           %. .+o:::::",
"::::o++. %O - -=$=- O% .++o:::::",
":::o+*+. O% =$    = %O .+*+o::::",
":::o+*o:  OO       OO  :o*+o::::",
":::o%;%::   OOOOOOO   ::%;%o::::",
"::: O&%O::..  +*+  ..::O%&O ::::",
"::: OOOO::o.X@@@@@X. ::OOOO ::::",
"::::   ::o++.X@@@X.*o:::   :::::",
":::::::::o++oO    +**o::::::::::",
":::::::   OOOO    +**o  ::::::::",
"::::::   O%%%O   o***o   :::::::",
":::::    O%%O    o**o     ::::::",
":::::            %%%O     ::::::",
":::::            %%&%O    ::::::",
"::::::           O&;&%O  :::::::",
":::::::          O%&&%O ::::::::",
":::::::::         OOOO :::::::::",
"::::::::::::::::::::::::::::::::"
};
