/* XPM */
static char *_617654fe2cc4887eb8efa0f35db8a658I07HZYkbvOgwkGQ[] = {
/* columns rows colors chars-per-pixel */
"32 32 16 1 ",
"  c None",
". c gray3",
"X c #380000",
"o c #700000",
"O c #483800",
"+ c #004808",
"@ c #785800",
"# c #B80800",
"$ c #F01008",
"% c #F86800",
"& c #008818",
"* c #08F060",
"= c #B09018",
"- c #F8A000",
"; c #F8F800",
": c #F8F8F8",
/* pixels */
"                                ",
"           $$$#   +&+           ",
"      o  #%::-%#o+&:*+          ",
"      ;oo%-;;-%$#+&*&+          ",
"     ;:o#%%--%$$$++&++          ",
"    o:-o#$$%%$$$$X+++           ",
"    o%-X#$$$$$$$$oXX            ",
"    o$-X#$$$$$$$$#ooX           ",
"    o#-%##$$$$$$$#ooX           ",
"    X$%$Xo#$$$$$$#ooX#          ",
"    X%%o&XXo#$$$#ooXX$#         ",
"    Xo$o***X####oooX#%$o        ",
"     XoX+&*XooooooXX--%o        ",
"      ....&+XooooXX%--%#o       ",
"      ..;.+&X.XXXX#$oXX#o       ",
"       --..&+X.XXX$oOO.oX       ",
"       .++.+&X.XX.#X=@OX.       ",
"        ..+++X...o#O==OX.       ",
"          .... O=o.O==O.o       ",
"              O==..@==OXX       ",
"              O==.O==@..        ",
"              +@@+:*&+=.        ",
"            +:*&&+*&&+==:*      ",
"            +:*&&&+++@==&*+     ",
"            .++++++..OO@&&+     ",
"             ..........O+&+     ",
"             .........+&&++     ",
"             .........+&&+      ",
"              ...........       ",
"                ......          ",
"                                ",
"                                "
};
