/* XPM */
static char *result[] = {
/* columns rows colors chars-per-pixel */
"32 32 16 1 ",
"  c gray3",
". c #380000",
"X c #700000",
"o c #483800",
"O c #004808",
"+ c #785800",
"@ c #B80800",
"# c #F01008",
"$ c #F86800",
"% c #008818",
"& c #08F060",
"* c #B09018",
"= c #F8A000",
"- c #F8F800",
"; c #F8F8F8",
": c None",
/* pixels */
"::::::::::::::OOO:::::::::::::::",
":::::::::::::OO%;O::::::::::::::",
":::::::::::::@@@@@::::::::::::::",
":::::::::::X@#$$XX$#::::::::::::",
":::::::::.X@#$=.-.=$#@::::::::::",
"::::::::.X@@#$.;-.;=$#@:::::::::",
"::::::::.X@@#.$;$.-=$#@:::::::::",
":::::::.XX@@@.-#@.$$#@@X::::::::",
":::::::.XXX@.$=#@.##@@@X::::::::",
":::::@#.X.XX.=#$#@.@X.@.#@::::::",
"::::@#$..&%..#$=$#..%&X.$#@:::::",
"::::@$=..%&&.#$--#.&&%X.=$@:::::",
"::::X=@ .%O%%.###.%%O%. @=X:::::",
"::::X@@ .%           %. @@X:::::",
":::::.XX %O - -=$=- O% XX.::::::",
"::::o+.. O% =$    = %O ..+o:::::",
"::::o++.  OO       OO  .++o:::::",
":::o+*+.:   OOOOOOO   :.+*+o::::",
":::o+*o:::..       ..:::o*+o::::",
":::o%;%:::.XX +*+ XX.:::%;%o::::",
"::: O&%O:: .X@@@@@X. ::O%&O ::::",
"::: OOOO::o+XX@@@XX+o::OOOO ::::",
"::::   ::o+**o...o**+o::   :::::",
":::::::::o**o     o**o::::::::::",
":::::::  o**o     o**o  ::::::::",
"::::::   O%%O     O%%O   :::::::",
":::::    O&&%O   O%&&O    ::::::",
":::::   O&;&%O   O%&;&O   ::::::",
":::::   O&&%O     O%&&O   ::::::",
"::::::                   :::::::",
":::::::                 ::::::::",
":::::::::             ::::::::::"
};
