/* XPM */
static char *_c54a95d2410466cfbcc05ac54a3be82TXc8b3PLumFFfjeb[] = {
/* columns rows colors chars-per-pixel */
"32 32 16 1 ",
"  c None",
". c gray3",
"X c #380000",
"o c #700000",
"O c #483800",
"+ c #004808",
"@ c #785800",
"# c #B80800",
"$ c #F01008",
"% c #F86800",
"& c #008818",
"* c #08F060",
"= c #B09018",
"- c #F8A000",
"; c #F8F800",
": c #F8F8F8",
/* pixels */
"                                ",
"          +&+   #$$$            ",
"         +*:&+o#%-::%#  o       ",
"         +&*&+#$%-;;-%oo;       ",
"         ++&++$$$%--%%#o:;      ",
"          +++X$$$$%%$$#o-:o     ",
"           XXo$$$$$$$$#X-%o     ",
"          Xoo#$$$$$$$$#X-$o     ",
"          Xoo#$$$$$$$##%-#o     ",
"         #Xoo#$$$$$$#oX$%$X     ",
"        #$XXoo#$$$#oXX&o%%X     ",
"       o$%#Xooo####X***o$oX     ",
"       o%--XXooooooX*&+XoX      ",
"      o#%--%XXooooX+&....       ",
"      o#XXo$#XXXX.X&+.;..       ",
"      Xo.OOo$XXX.X+&..--        ",
"      .XO@=X#.XX.X&+.++.        ",
"      .XO==O#o...X+++..         ",
"      o.O==O.o=O ....           ",
"      XXO==@..==O               ",
"       ..@==O.==O               ",
"       .=+&*:+@@+               ",
"     *:==+&&*+&&*:+             ",
"    +*&==@+++&&&*:+             ",
"    +&&@OO..++++++.             ",
"    +&+O..........              ",
"    ++&&+.........              ",
"     +&&+.........              ",
"      ...........               ",
"         ......                 ",
"                                ",
"                                "
};
