/* XPM */
static char *result[] = {
/* columns rows colors chars-per-pixel */
"32 32 16 1 ",
"  c gray3",
". c #380000",
"X c #700000",
"o c #483800",
"O c #004808",
"+ c #785800",
"@ c #B80800",
"# c #F01008",
"$ c #F86800",
"% c #008818",
"& c #08F060",
"* c #B09018",
"= c #F8A000",
"- c #F8F800",
"; c #F8F8F8",
": c None",
/* pixels */
"::::::::::::::::::::::::::::::::",
":::::::::::::::=-X::::::::::::::",
"::::::::::::::.-XX::::::::::::::",
":::::::::::::X@@@X::::::::::::::",
":::::::::::X@#$$$$#@::::::::::::",
":::::::::.X@#$==;;=#@X::::::::::",
"::::::::.X@@#$==-;=$#@X:::::::::",
"::::::::.X@@##OOO==$##X:::::::::",
":::::::.XX@@@O&;%O$###X.::::::::",
":::::::.XXX@@O%&%O###@X.::::::::",
"::::::@#@..XX O%O @@..@#@:::::::",
":::::X#=--=..XXXXX..$=--#X::::::",
"::::X@#$==$$@.....@$$$=$#@X:::::",
"::::X@##@@#$$=---=$$#@@##@X:::::",
"::::o..X@@@@#=---$#@@@@X..o:::::",
"::::o+o.X@XX@$===$@XX@X.o+o:::::",
":::o+++  .XX@#$$$#@XX.  +++o::::",
":::o*+.:: .X@#####@X. ::.+*o::::",
":::O*+.:::..@#####@..:::.+*O::::",
":::OO&% ::.  @@@@@  .:: %&OO::::",
"::: O%% ::.X@     @X.:: %%O ::::",
"::::   :::oXX#$$$#XXo:::   :::::",
"::::::::: o+.X@@@X.+*o::::::::::",
":::::::  o+++oXXX  o+oO ::::::::",
"::::::   o+*+o     o+oO  :::::::",
":::::    o+*o      oooO   ::::::",
":::::    o**o      OOO    ::::::",
":::::    O&&O             ::::::",
"::::::  OO&&%            :::::::",
"::::::: O%%%O           ::::::::",
":::::::: OOO          ::::::::::",
"::::::::::::::::::::::::::::::::"
};
