/* XPM */
static char *result[] = {
/* columns rows colors chars-per-pixel */
"32 32 8 1 ",
"  c gray25",
". c gray91",
"X c #606060",
"o c #909090",
"O c #C8C8C8",
"+ c gray69",
"@ c #F88890",
"# c #282828",
/* pixels */
"  ........XXooooooooXX........XX",
"  ........XXooooooooXX........XX",
"  ..OOOOOO++++OOOO++++OOOOOO..XX",
"  ..OOOOOO++++OOOO++++OOOOOO..XX",
"  ..OOOO++............++OOOO..XX",
"  ..OOOO++............++OOOO..XX",
"  ..OO++..OOoo    ooOO..++OO..XX",
"  ..OO++..OOoo    ooOO..++OO..XX",
"  ..OO..OOoo  ....  ooOO..OO..XX",
"  ..OO..OOoo  ....  ooOO..OO..XX",
"XXoooo..++  ........  ++..oooooo",
"XXoooo..++  ........  ++..oooooo",
"XXoooo..++@@........@@++..oooooo",
"XXoooo..++@@........@@++..oooooo",
"XXoooo..++@@........@@++..oooooo",
"XXoooo..++@@........@@++..oooooo",
"XXoooo..OOoo@@....@@ooOO..oooooo",
"XXoooo..OOoo@@....@@ooOO..oooooo",
"######++..OOoo@@@@ooOO..++####  ",
"######++..OOoo@@@@ooOO..++####  ",
"  OO++XX++............++XX++OOXX",
"  OO++XX++............++XX++OOXX",
"  OO++++XX++++OOOO++++XX++++OOXX",
"  OO++++XX++++OOOO++++XX++++OOXX",
"  ..OOOOOOXXooooooooXXOOOOOO..XX",
"  ..OOOOOOXXooooooooXXOOOOOO..XX",
"  ........XXooooooooXX........XX",
"  ........XXooooooooXX........XX",
"  XXXXXXXX  XXXXXXXX  XXXXXXXXXX",
"  XXXXXXXX  XXXXXXXX  XXXXXXXXXX",
"            XXXXXXXX            ",
"            XXXXXXXX            "
};
