/* XPM */
static char *result[] = {
/* columns rows colors chars-per-pixel */
"32 32 8 1 ",
"  c #8868D0",
". c #C8C8C8",
"X c gray69",
"o c #909090",
"O c #282828",
"+ c gray25",
"@ c #181818",
"# c #606060",
/* pixels */
"  ....XXXXXXXXXXXXXXXXXXXX....  ",
"  ....XXXXXXXXXXXXXXXXXXXX....  ",
"..ooOOOOOOOOOOOOOOOOOOOOOOOOoo..",
"..ooOOOOOOOOOOOOOOOOOOOOOOOOoo..",
"..OOOOOOOOOOOOOOOOOOOOOOOOOOOO..",
"..OOOOOOOOOOOOOOOOOOOOOOOOOOOO..",
"XX++@@OOOOOOOOOOOOOOOOOOOO@@++XX",
"XX++@@OOOOOOOOOOOOOOOOOOOO@@++XX",
"XX++@@OOOOOOOOOOOOOOOOOOOO@@++XX",
"XX++@@OOOOOOOOOOOOOOOOOOOO@@++XX",
"XX++OO@@@@@@@@@@@@@@@@@@@@OO++XX",
"XX++OO@@@@@@@@@@@@@@@@@@@@OO++XX",
"XX++OO++++++++++++++++++++OO++XX",
"XX++OO++++++++++++++++++++OO++XX",
"XX++OO++++++++++++++++++++OO++XX",
"XX++OO++++++++++++++++++++OO++XX",
"XX++OO++++++++++++++++++++OO++XX",
"XX++OO++++++++++++++++++++OO++XX",
"XX++OO##++##++##++##++##++OO++XX",
"XX++OO##++##++##++##++##++OO++XX",
"XX++OO++##++##++##++##++##OO++XX",
"XX++OO++##++##++##++##++##OO++XX",
"XX++OO##++##++##++##++##++OO++XX",
"XX++OO##++##++##++##++##++OO++XX",
"XX++OO++##++##++##++##++##OO++XX",
"XX++OO++##++##++##++##++##OO++XX",
"..++OO##++##++##++##++##++OO++..",
"..++OO##++##++##++##++##++OO++..",
"..ooOO++##++##++##++##++##OOoo..",
"..ooOO++##++##++##++##++##OOoo..",
"  ....XXXXXXXXXXXXXXXXXXXX....  ",
"  ....XXXXXXXXXXXXXXXXXXXX....  "
};
