/* XPM */
static char *_a6aac73d54445decd1779b0781ea5b8eGmsIWm9n8t5CfAH[] = {
/* columns rows colors chars-per-pixel */
"32 32 2 1 ",
"  c #8868D0",
". c #7058B8",
/* pixels */
"    ..      ..    ..      ..    ",
"    ..      ..    ..      ..    ",
"  ....  ....        ....  ....  ",
"  ....  ....        ....  ....  ",
"....    ..    ....    ..    ....",
"....    ..    ....    ..    ....",
"      ....  ........  ....      ",
"      ....  ........  ....      ",
"  ......      ....      ......  ",
"  ......      ....      ......  ",
"  ..          ....          ..  ",
"  ..          ....          ..  ",
"..    ..      ....      ..    ..",
"..    ..      ....      ..    ..",
"    ..........    ..........    ",
"    ..........    ..........    ",
"    ..........    ..........    ",
"    ..........    ..........    ",
"..    ..      ....      ..    ..",
"..    ..      ....      ..    ..",
"  ..          ....          ..  ",
"  ..          ....          ..  ",
"  ......      ....      ......  ",
"  ......      ....      ......  ",
"      ....  ........  ....      ",
"      ....  ........  ....      ",
"....    ..    ....    ..    ....",
"....    ..    ....    ..    ....",
"  ....  ....        ....  ....  ",
"  ....  ....        ....  ....  ",
"    ..      ..    ..      ..    ",
"    ..      ..    ..      ..    "
};
