/* XPM */
static char *_c77e124b09a4ee5e7f40c3f4351dff1cC28YVBMM00Ps3T1[] = {
/* columns rows colors chars-per-pixel */
"32 32 10 1 ",
"  c None",
". c #101010",
"X c #E02078",
"o c #F0E820",
"O c #7858F0",
"+ c #F898A8",
"@ c #F8D090",
"# c #C0B0F8",
"$ c #C0C0C0",
"% c #F8F8F8",
/* pixels */
"                                ",
"                                ",
"                                ",
"                                ",
"                   ...          ",
"                  .X+X.         ",
"                  .+++.         ",
"             ......X+X.         ",
"            .$%%%$.%..          ",
"           .%%%%%%%..           ",
"          .@@@%%%%%%.           ",
"          .@.@@%%%%%.           ",
"          .@.@@$%%%%.           ",
"          .@.@@$%%%%.           ",
"          .@.@@$%%%$.           ",
"           .@@$%%%%.            ",
"            .$%%%$.             ",
"             .....              ",
"           ..O#.%%..            ",
"          .X.o...$+X.           ",
"          .X.OOOO.XX.           ",
"          ....%$....            ",
"         .++X%$..$XX.           ",
"         .X++X...XXX.           ",
"         ...XX..XXX...          ",
"         .............          ",
"            .......             ",
"                                ",
"                                ",
"                                ",
"                                ",
"                                "
};
