/* XPM */
static char *result[] = {
/* columns rows colors chars-per-pixel */
"32 32 11 1 ",
"  c #101010",
". c #E02078",
"X c #F0E820",
"o c #D88850",
"O c #7858F0",
"+ c #F898A8",
"@ c #F8D090",
"# c #C0B0F8",
"$ c #C0C0C0",
"% c #F8F8F8",
"& c None",
/* pixels */
"&&&&&&&&&&&&&&&&&&&&&&&&&&&&&&&&",
"&&&&&&&&&&&&&&&&&&&&&&&&&&&&&&&&",
"&&&&&&&&&&&&&&&&&&&&&&&&&&&&&&&&",
"&&&&&&&&&&&&&&&&&&&&&&&&&&&&&&&&",
"&&&&&&&&&&&&&&&   &&&&&&&&&&&&&&",
"&&&&&&&&&&&&&& ++. &&&&&&&&&&&&&",
"&&&&&&&&&&&&&&   . &&&&&&&&&&&&&",
"&&&&&&&&&&&&  $%%$  &&&&&&&&&&&&",
"&&&&&&&&&&& $%%%%%%   &&&&&&&&&&",
"&&&&&&&&&& $%%%%%% %+. &&&&&&&&&",
"&&&&&&&&&& %%@@@o  ++. &&&&&&&&&",
"&&&&&&&&&& %o @@ @ ... &&&&&&&&&",
"&&&&&&&&&& % @ @ @  % &&&&&&&&&&",
"&&&&&&&&&& % @ @ @@ $ &&&&&&&&&&",
"&&&&&&&&&& % @o@@@ % &&&&&&&&&&&",
"&&&&&&&&&&& $@@@@% $ &&&&&&&&&&&",
"&&&&&&&&&&&  %%%% % &&&&&&&&&&&&",
"&&&&&&&&&& +.     $ &&&&&&&&&&&&",
"&&&&&&&&&& .. O##   &&&&&&&&&&&&",
"&&&&&&&&&&& %$ XX#O &&&&&&&&&&&&",
"&&&&&&&&&&&&  OO#O &&&&&&&&&&&&&",
"&&&&&&&&&&&&& @  $  &&&&&&&&&&&&",
"&&&&&&&&&&&  .@  @  &&&&&&&&&&&&",
"&&&&&&&&&& ++... ... &&&&&&&&&&&",
"&&&&&&&&&  ....  .... &&&&&&&&&&",
"&&&&&&&&&        .++. &&&&&&&&&&",
"&&&&&&&&&         ..  &&&&&&&&&&",
"&&&&&&&&&&&&        &&&&&&&&&&&&",
"&&&&&&&&&&&&&&&&&&&&&&&&&&&&&&&&",
"&&&&&&&&&&&&&&&&&&&&&&&&&&&&&&&&",
"&&&&&&&&&&&&&&&&&&&&&&&&&&&&&&&&",
"&&&&&&&&&&&&&&&&&&&&&&&&&&&&&&&&"
};
