/* XPM */
static char *_34ad4ce59454c9cfde02ac5c1e0f47cty6HHJhJODOt3IOZ[] = {
/* columns rows colors chars-per-pixel */
"32 32 10 1 ",
"  c None",
". c #101010",
"X c #E02078",
"o c #F0E820",
"O c #7858F0",
"+ c #F898A8",
"@ c #F8D090",
"# c #C0B0F8",
"$ c #C0C0C0",
"% c #F8F8F8",
/* pixels */
"                                ",
"                                ",
"                                ",
"                                ",
"          ...                   ",
"         .X+X.                  ",
"         .+++.                  ",
"         .X+X......             ",
"          ..%.$%%%$.            ",
"           ..%%%%%%%.           ",
"           .%%%%%%@@@.          ",
"           .%%%%%@@.@.          ",
"           .%%%%$@@.@.          ",
"           .%%%%$@@.@.          ",
"           .$%%%$@@.@.          ",
"            .%%%%$@@.           ",
"             .$%%%$.            ",
"              .....             ",
"            ..%%.#O..           ",
"           .X+$...o.X.          ",
"           .XX.OOOO.X.          ",
"            ....$%....          ",
"           .XX$..$%X++.         ",
"           .XXX...X++X.         ",
"          ...XXX..XX...         ",
"          .............         ",
"             .......            ",
"                                ",
"                                ",
"                                ",
"                                ",
"                                "
};
