/* XPM */
static char *b05245eb44b443daf4dd9d2dbb072bd0Sfc2MRboXIdFx2rQ[] = {
/* columns rows colors chars-per-pixel */
"32 32 8 1 ",
"  c None",
". c #101010",
"X c #E02078",
"o c #7858F0",
"O c #F898A8",
"+ c #C0B0F8",
"@ c #C0C0C0",
"# c #F8F8F8",
/* pixels */
"                                ",
"                                ",
"                                ",
"                                ",
"              ...               ",
"             .XOX.              ",
"             .OOO.              ",
"             .XXX.              ",
"            .@.@.@.             ",
"           .##@.@##.            ",
"          .@#######@.           ",
"          .#########.           ",
"          .#########.           ",
"          .#########.           ",
"          .@#######@.           ",
"           .#######.            ",
"           ..@###@.             ",
"          .#@.....@.            ",
"         .XO..+++o.X.           ",
"         .OOX......X.           ",
"         .XX..o+oo..            ",
"          ..........            ",
"           .XXX.XOO..           ",
"           .XXX.OXXO.           ",
"         .......XXXX..          ",
"         ........XX...          ",
"            .......             ",
"                                ",
"                                ",
"                                ",
"                                ",
"                                "
};
