/* XPM */
static char *f9c4a8ceb1054c078da5561aafa4cf97ZpZwf7KVPRD7swap[] = {
/* columns rows colors chars-per-pixel */
"32 32 5 1 ",
"  c #382818",
". c #584838",
"X c #786050",
"o c #E8D8C8",
"O c #D0B8A0",
/* pixels */
"  ....XXooOOOOOOOOoo..ooOOOOOOOO",
"  ....XXooOOOOOOOOoo..ooOOOOOOOO",
"  ....XXooOOOOOOOOoo..ooOOOOOOOO",
"  ....XXooOOOOOOOOoo..ooOOOOOOOO",
"  ....XXooOOOOOOOOoo..ooOOOOOOOO",
"  ....XXooOOOOOOOOoo..ooOOOOOOOO",
"  ....XXooOOOOOOOOoo..ooOOOOOOOO",
"  ....XXooOOOOOOOOoo..ooOOOOOOOO",
"  ....XXooOOOOOOOOoo..ooOOOOOOOO",
"  ....XXooOOOOOOOOoo..ooOOOOOOOO",
"  ....XXooOOOOOOOOoo..ooOOOOOOOO",
"  ....XXooOOOOOOOOoo..ooOOOOOOOO",
"  ....XXooOOOOOOOOoo..ooOOOOOOOO",
"  ....XXooOOOOOOOOoo..ooOOOOOOOO",
"  ....XXooOOOOOOOOoo..ooOOOOOOOO",
"  ....XXooOOOOOOOOoo..ooOOOOOOOO",
"  ....XXooOOOOOOOOoo..ooOOOOOOOO",
"  ....XXooOOOOOOOOoo..ooOOOOOOOO",
"  ....XXooOOOOOOOOoo..ooOOOOOOOO",
"  ....XXooOOOOOOOOoo..ooOOOOOOOO",
"  ....XXooOOOOOOOOoo..ooOOOOOOOO",
"  ....XXooOOOOOOOOoo..ooOOOOOOOO",
"  ....XXooOOOOOOOOoo..ooOOOOOOOO",
"  ....XXooOOOOOOOOoo..ooOOOOOOOO",
"  ....XXooOOOOOOOOoo..ooOOOOOOOO",
"  ....XXooOOOOOOOOoo..ooOOOOOOOO",
"  ....XXooOOOOOOOOoo..ooOOOOOOOO",
"  ....XXooOOOOOOOOoo..ooOOOOOOOO",
"  ....XXooOOOOOOOOoo..ooOOOOOOOO",
"  ....XXooOOOOOOOOoo..ooOOOOOOOO",
"  ....XXooOOOOOOOOoo..ooOOOOOOOO",
"  ....XXooOOOOOOOOoo..ooOOOOOOOO"
};
