/* XPM */
static char *_998a727231c401ec08fa5ff512c47c8qAG8L92iXyHOGHKS[] = {
/* columns rows colors chars-per-pixel */
"32 32 5 1 ",
"  c #D0B8A0",
". c #E8D8C8",
"X c #584838",
"o c #786050",
"O c #382818",
/* pixels */
"        ..XX..        ..ooXXXXOO",
"        ..XX..        ..ooXXXXOO",
"        ..XX..        ..ooXXXXOO",
"        ..XX..        ..ooXXXXOO",
"        ..XX..        ..ooXXXXOO",
"        ..XX..        ..ooXXXXOO",
"        ..XX..        ..ooXXXXOO",
"        ..XX..        ..ooXXXXOO",
"        ..XX..        ..ooXXXXOO",
"        ..XX..        ..ooXXXXOO",
"        ..XX..        ..ooXXXXOO",
"        ..XX..        ..ooXXXXOO",
"        ..XX..        ..ooXXXXOO",
"        ..XX..        ..ooXXXXOO",
"        ..XX..        ..ooXXXXOO",
"        ..XX..        ..ooXXXXOO",
"        ..XX..        ..ooXXXXOO",
"        ..XX..        ..ooXXXXOO",
"        ..XX..        ..ooXXXXOO",
"        ..XX..        ..ooXXXXOO",
"        ..XX..        ..ooXXXXOO",
"        ..XX..        ..ooXXXXOO",
"        ..XX..        ..ooXXXXOO",
"        ..XX..        ..ooXXXXOO",
"        ..XX..        ..ooXXXXOO",
"        ..XX..        ..ooXXXXOO",
"        ..XX..        ..ooXXXXOO",
"        ..XX..        ..ooXXXXOO",
"        ..XX..        ..ooXXXXOO",
"        ..XX..        ..ooXXXXOO",
"        ..XX..        ..ooXXXXOO",
"        ..XX..        ..ooXXXXOO"
};
