/* XPM */
static char *_7ac9c7e5cb84a85984623335b1aaaf77lK9socKbbKdeX5p[] = {
/* columns rows colors chars-per-pixel */
"32 32 13 1 ",
"  c #786050",
". c #B8A088",
"X c #D0B8A0",
"o c #E8D8C8",
"O c #F8F8F8",
"+ c #584838",
"@ c #988068",
"# c #382818",
"$ c black",
"% c #F88000",
"& c #F8D068",
"* c #7058B8",
"= c #5848A0",
/* pixels */
"  ....XXooOOOOOOOOOOOOooXX....  ",
"  ....XXooOOOOOOOOOOOOooXX....  ",
"++@@..ooXX............XXoo..@@++",
"++@@..ooXX............XXoo..@@++",
"++@@XX  ##$$$$$$$$$$$$##  XX@@++",
"++@@XX  ##$$$$$$$$$$$$##  XX@@++",
"++@@..++$$%%&&OOOO&&%%$$++..@@++",
"++@@..++$$%%&&OOOO&&%%$$++..@@++",
"++@@@@++$$$$$$$$$$$$$$$$++@@@@++",
"++@@@@++$$$$$$$$$$$$$$$$++@@@@++",
"++@@@@++$$%%&&OOOO&&%%$$++@@@@++",
"++@@@@++$$%%&&OOOO&&%%$$++@@@@++",
"++@@@@++$$$$$$$$$$$$$$$$++@@@@++",
"++@@@@++$$$$$$$$$$$$$$$$++@@@@++",
"++@@..++$$%%&&OOOO&&%%$$++..@@++",
"++@@..++$$%%&&OOOO&&%%$$++..@@++",
"++@@XX  $$$$$$$$$$$$$$##  XX@@++",
"++@@XX  $$$$$$$$$$$$$$##  XX@@++",
"++@@..ooXX............XXoo..@@++",
"++@@..ooXX............XXoo..@@++",
"++@@..XXooOOOOOOOOOOOOooXX..@@++",
"++@@..XXooOOOOOOOOOOOOooXX..@@++",
"++@@@@                    @@@@++",
"++@@@@                    @@@@++",
"++@@  ++++++++++++++++++++  @@++",
"++@@  ++++++++++++++++++++  @@++",
"++  ++++++++++++++++++++++++  ++",
"++  ++++++++++++++++++++++++  ++",
"++++########################++++",
"++++########################++++",
"****==******==****==******==****",
"****==******==****==******==****"
};
